<mxfile host="Electron" agent="Mozilla/5.0 (X11; Linux x86_64) AppleWebKit/537.36 (KHTML, like Gecko) draw.io/24.7.8 Chrome/128.0.6613.36 Electron/32.0.1 Safari/537.36" version="24.7.8">
  <diagram name="Страница — 1" id="Zvr2eW7H0rXLNG6UFAMz">
    <mxGraphModel dx="1543" dy="288" grid="1" gridSize="10" guides="1" tooltips="1" connect="1" arrows="1" fold="1" page="1" pageScale="1" pageWidth="827" pageHeight="1169" math="0" shadow="0">
      <root>
        <mxCell id="0" />
        <mxCell id="1" parent="0" />
        <UserObject label="&lt;div style=&quot;font-size: 13px;&quot;&gt;&lt;span style=&quot;background-color: initial; font-size: 13px;&quot;&gt;&lt;font style=&quot;font-size: 13px;&quot; color=&quot;#990488&quot;&gt;SELECT&lt;/font&gt;&amp;nbsp;&lt;font style=&quot;font-size: 13px;&quot; color=&quot;#425dc0&quot;&gt;*&lt;/font&gt;&lt;font style=&quot;font-size: 13px;&quot; color=&quot;#990488&quot;&gt;&amp;nbsp;FROM&lt;/font&gt;&lt;/span&gt;&lt;/div&gt;&lt;div style=&quot;font-size: 13px;&quot;&gt;&lt;span style=&quot;background-color: initial; font-size: 13px;&quot;&gt;&amp;nbsp;&lt;/span&gt;&lt;/div&gt;&lt;div style=&quot;font-size: 13px;&quot;&gt;&lt;span style=&quot;background-color: initial; font-size: 13px;&quot;&gt;&lt;font style=&quot;font-size: 13px;&quot; color=&quot;#425dc0&quot;&gt;&lt;br style=&quot;font-size: 13px;&quot;&gt;&lt;/font&gt;&lt;/span&gt;&lt;/div&gt;&lt;div style=&quot;font-size: 13px;&quot;&gt;&lt;span style=&quot;background-color: initial; font-size: 13px;&quot;&gt;&lt;font style=&quot;font-size: 13px;&quot; color=&quot;#425dc0&quot;&gt;&lt;br style=&quot;font-size: 13px;&quot;&gt;&lt;/font&gt;&lt;/span&gt;&lt;/div&gt;&lt;div style=&quot;font-size: 13px;&quot;&gt;&lt;span style=&quot;background-color: initial; font-size: 13px;&quot;&gt;&lt;font style=&quot;font-size: 13px;&quot; color=&quot;#425dc0&quot;&gt;&lt;br style=&quot;font-size: 13px;&quot;&gt;&lt;/font&gt;&lt;/span&gt;&lt;/div&gt;&lt;div style=&quot;font-size: 13px;&quot;&gt;&lt;span style=&quot;background-color: initial; font-size: 13px;&quot;&gt;&lt;font style=&quot;font-size: 13px;&quot; color=&quot;#425dc0&quot;&gt;tbl1 t1&lt;/font&gt;&lt;font style=&quot;font-size: 13px;&quot; color=&quot;#990488&quot;&gt;&amp;nbsp;&lt;/font&gt;&lt;/span&gt;&lt;/div&gt;&lt;div style=&quot;font-size: 13px;&quot;&gt;&lt;span style=&quot;background-color: initial; color: rgb(153, 4, 136); font-size: 13px;&quot;&gt;&lt;br style=&quot;font-size: 13px;&quot;&gt;&lt;/span&gt;&lt;/div&gt;&lt;div style=&quot;font-size: 13px;&quot;&gt;&lt;span style=&quot;background-color: initial; color: rgb(153, 4, 136); font-size: 13px;&quot;&gt;JOIN&amp;nbsp;&lt;/span&gt;&lt;/div&gt;&lt;div style=&quot;font-size: 13px;&quot;&gt;&lt;span style=&quot;background-color: initial; color: rgb(66, 93, 192); font-size: 13px;&quot;&gt;&lt;br style=&quot;font-size: 13px;&quot;&gt;&lt;/span&gt;&lt;/div&gt;&lt;div style=&quot;font-size: 13px;&quot;&gt;&lt;span style=&quot;background-color: initial; color: rgb(66, 93, 192); font-size: 13px;&quot;&gt;&lt;br&gt;&lt;/span&gt;&lt;/div&gt;&lt;div style=&quot;font-size: 13px;&quot;&gt;&lt;span style=&quot;background-color: initial; color: rgb(66, 93, 192); font-size: 13px;&quot;&gt;tbl2 t2&amp;nbsp; &lt;/span&gt;&lt;font style=&quot;background-color: initial; font-size: 13px;&quot; color=&quot;#990488&quot;&gt;USING&lt;/font&gt;&lt;span style=&quot;background-color: initial; color: rgb(66, 93, 192); font-size: 13px;&quot;&gt;&amp;nbsp;&lt;/span&gt;&lt;font style=&quot;background-color: initial; color: rgb(51, 51, 51); font-size: 13px;&quot; color=&quot;#333333&quot;&gt;(&lt;/font&gt;&lt;font style=&quot;background-color: initial; font-size: 13px;&quot; color=&quot;#425dc0&quot;&gt;id&lt;/font&gt;&lt;font style=&quot;background-color: initial; color: rgb(51, 51, 51); font-size: 13px;&quot; color=&quot;#333333&quot;&gt;)&lt;/font&gt;&lt;br style=&quot;font-size: 13px;&quot;&gt;&lt;/div&gt;&lt;div style=&quot;color: rgb(51, 51, 51); font-size: 13px;&quot;&gt;&lt;font style=&quot;font-size: 13px;&quot; color=&quot;#333333&quot;&gt;&lt;br style=&quot;font-size: 13px;&quot;&gt;&lt;/font&gt;&lt;/div&gt;&lt;div style=&quot;font-size: 13px;&quot;&gt;&lt;br style=&quot;font-size: 13px;&quot;&gt;&lt;/div&gt;&lt;div style=&quot;font-size: 13px;&quot;&gt;&lt;font style=&quot;font-size: 13px;&quot; color=&quot;#990488&quot;&gt;LEFT OUTER JOIN&lt;/font&gt;&lt;/div&gt;&lt;div style=&quot;font-size: 13px;&quot;&gt;&lt;font style=&quot;font-size: 13px;&quot; color=&quot;#990488&quot;&gt;&lt;br&gt;&lt;/font&gt;&lt;/div&gt;&lt;div style=&quot;font-size: 13px;&quot;&gt;&lt;font style=&quot;font-size: 13px;&quot; color=&quot;#425dc0&quot;&gt;&lt;br style=&quot;font-size: 13px;&quot;&gt;&lt;/font&gt;&lt;/div&gt;&lt;div style=&quot;font-size: 13px;&quot;&gt;&lt;font style=&quot;font-size: 13px;&quot; color=&quot;#425dc0&quot;&gt;generate_series&lt;/font&gt;&lt;font style=&quot;font-size: 13px;&quot; color=&quot;#545454&quot;&gt;(&lt;/font&gt;&lt;font style=&quot;font-size: 13px;&quot; color=&quot;#b36844&quot;&gt;1&lt;/font&gt;&lt;font style=&quot;font-size: 13px;&quot; color=&quot;#313131&quot;&gt;,&lt;/font&gt;&lt;font style=&quot;font-size: 13px;&quot; color=&quot;#990488&quot;&gt; &lt;/font&gt;&lt;font style=&quot;font-size: 13px;&quot; color=&quot;#b36844&quot;&gt;100&lt;/font&gt;&lt;font style=&quot;font-size: 13px;&quot; color=&quot;#545454&quot;&gt;)&lt;/font&gt;&lt;font style=&quot;font-size: 13px;&quot; color=&quot;#990488&quot;&gt; &lt;/font&gt;&lt;font style=&quot;font-size: 13px;&quot; color=&quot;#425dc0&quot;&gt;g&lt;/font&gt;&lt;font style=&quot;background-color: initial; color: rgb(51, 51, 51); font-size: 13px;&quot; color=&quot;#333333&quot;&gt;(&lt;/font&gt;&lt;font style=&quot;background-color: initial; font-size: 13px;&quot; color=&quot;#425dc0&quot;&gt;id&lt;/font&gt;&lt;font style=&quot;background-color: initial; color: rgb(51, 51, 51); font-size: 13px;&quot; color=&quot;#333333&quot;&gt;)&amp;nbsp;&amp;nbsp;&lt;/font&gt;&lt;font style=&quot;background-color: initial;&quot; color=&quot;#990488&quot;&gt;USING&amp;nbsp;&lt;/font&gt;&lt;font style=&quot;background-color: initial; color: rgb(51, 51, 51);&quot; color=&quot;#333333&quot;&gt;(&lt;/font&gt;&lt;font style=&quot;background-color: initial;&quot; color=&quot;#425dc0&quot;&gt;id&lt;/font&gt;&lt;font style=&quot;background-color: initial; color: rgb(51, 51, 51);&quot; color=&quot;#333333&quot;&gt;),&lt;/font&gt;&lt;/div&gt;&lt;div style=&quot;color: rgb(51, 51, 51); font-size: 13px;&quot;&gt;&lt;br&gt;&lt;/div&gt;&lt;div style=&quot;color: rgb(51, 51, 51); font-size: 13px;&quot;&gt;&lt;br&gt;&lt;/div&gt;&lt;div style=&quot;color: rgb(51, 51, 51); font-size: 13px;&quot;&gt;&lt;br&gt;&lt;/div&gt;&lt;font style=&quot;font-size: 13px;&quot; color=&quot;#333333&quot;&gt;(&lt;/font&gt;&lt;div&gt;&lt;font style=&quot;background-color: initial; font-size: 13px;&quot; color=&quot;#990488&quot;&gt;&lt;br&gt;&lt;/font&gt;&lt;/div&gt;&lt;div&gt;&lt;font style=&quot;background-color: initial; font-size: 13px;&quot; color=&quot;#990488&quot;&gt;&lt;br&gt;&lt;/font&gt;&lt;/div&gt;&lt;div&gt;&lt;font style=&quot;background-color: initial; font-size: 13px;&quot; color=&quot;#990488&quot;&gt;&amp;nbsp; SELECT&lt;/font&gt;&lt;span style=&quot;background-color: initial; font-size: 13px;&quot;&gt; &lt;/span&gt;&lt;font style=&quot;background-color: initial; font-size: 13px;&quot; color=&quot;#990488&quot;&gt;MAX&lt;/font&gt;&lt;font style=&quot;background-color: initial; font-size: 13px;&quot; color=&quot;#333333&quot;&gt;(&lt;/font&gt;&lt;font style=&quot;background-color: initial; font-size: 13px;&quot; color=&quot;#425dc0&quot;&gt;id&lt;/font&gt;&lt;font style=&quot;background-color: initial; font-size: 13px;&quot; color=&quot;#333333&quot;&gt;)&lt;/font&gt;&lt;span style=&quot;background-color: initial; font-size: 13px;&quot;&gt;&amp;nbsp;&lt;/span&gt;&lt;font style=&quot;background-color: initial; font-size: 13px;&quot; color=&quot;#990488&quot;&gt;FROM&lt;/font&gt;&lt;span style=&quot;background-color: initial; font-size: 13px;&quot;&gt; &lt;/span&gt;&lt;font style=&quot;background-color: initial; font-size: 13px;&quot; color=&quot;#425dc0&quot;&gt;tbl3&lt;/font&gt;&lt;span style=&quot;background-color: initial; font-size: 13px;&quot;&gt;&amp;nbsp;&lt;/span&gt;&lt;font style=&quot;background-color: initial; font-size: 13px;&quot; color=&quot;#990488&quot;&gt;GROUP BY&lt;/font&gt;&lt;font style=&quot;background-color: initial; font-size: 13px;&quot; color=&quot;#425dc0&quot;&gt; value&lt;/font&gt;&lt;/div&gt;&lt;div&gt;&lt;span style=&quot;background-color: initial; color: rgb(51, 51, 51);&quot;&gt;)&lt;/span&gt;&lt;br&gt;&lt;/div&gt;" link="explain select t1.value, max(t1.id) from tbl t1&#xa;join&#xa;(select id from tbl where value = 1 or value = 2) t2&#xa;using (id)&#xa;group by t1.value&#xa;having count(t1.id) &gt; 100;" id="RwIBvyNCzQx5JKe9MGN5-47">
          <mxCell style="text;html=1;align=left;verticalAlign=middle;whiteSpace=wrap;rounded=0;fontFamily=Courier New;shadow=0;horizontal=1;spacing=2;fontSize=13;" parent="1" vertex="1">
            <mxGeometry x="-603" y="190" width="391" height="407" as="geometry" />
          </mxCell>
        </UserObject>
        <mxCell id="RwIBvyNCzQx5JKe9MGN5-48" value="" style="rounded=1;whiteSpace=wrap;html=1;fillColor=none;align=left;verticalAlign=top;arcSize=13;strokeColor=#006600;" parent="1" vertex="1">
          <mxGeometry x="-608" y="270" width="74" height="27" as="geometry" />
        </mxCell>
        <mxCell id="RwIBvyNCzQx5JKe9MGN5-49" value="RelOptInfo (BASEREL)" style="text;html=1;align=center;verticalAlign=middle;whiteSpace=wrap;rounded=0;fontSize=10;fontStyle=1;fontColor=#006600;" parent="1" vertex="1">
          <mxGeometry x="-610.5" y="245" width="116.5" height="30" as="geometry" />
        </mxCell>
        <mxCell id="RwIBvyNCzQx5JKe9MGN5-50" value="" style="rounded=1;whiteSpace=wrap;html=1;fillColor=none;align=left;verticalAlign=top;arcSize=13;strokeColor=#006600;" parent="1" vertex="1">
          <mxGeometry x="-608" y="350" width="75" height="23" as="geometry" />
        </mxCell>
        <mxCell id="RwIBvyNCzQx5JKe9MGN5-51" value="RelOptInfo (BASEREL)" style="text;html=1;align=center;verticalAlign=middle;whiteSpace=wrap;rounded=0;fontSize=10;fontStyle=1;fontColor=#006600;" parent="1" vertex="1">
          <mxGeometry x="-621" y="321" width="137" height="30" as="geometry" />
        </mxCell>
        <mxCell id="RwIBvyNCzQx5JKe9MGN5-54" value="" style="rounded=1;whiteSpace=wrap;html=1;fillColor=none;align=left;verticalAlign=top;arcSize=12;strokeColor=#006600;" parent="1" vertex="1">
          <mxGeometry x="-609" y="439" width="264" height="29" as="geometry" />
        </mxCell>
        <mxCell id="RwIBvyNCzQx5JKe9MGN5-55" value="RelOptInfo (BASEREL)" style="text;html=1;align=center;verticalAlign=middle;whiteSpace=wrap;rounded=0;fontSize=10;fontStyle=1;fontColor=#006600;" parent="1" vertex="1">
          <mxGeometry x="-612" y="409" width="121" height="30" as="geometry" />
        </mxCell>
        <mxCell id="RwIBvyNCzQx5JKe9MGN5-56" value="" style="rounded=1;whiteSpace=wrap;html=1;fillColor=none;align=left;verticalAlign=top;arcSize=2;strokeColor=#BF0707;" parent="1" vertex="1">
          <mxGeometry x="-620.5" y="230" width="387.5" height="244" as="geometry" />
        </mxCell>
        <mxCell id="RwIBvyNCzQx5JKe9MGN5-57" value="RelOptInfo (JOINREL)" style="text;html=1;align=center;verticalAlign=middle;whiteSpace=wrap;rounded=0;fontSize=10;fontStyle=1;fontColor=#BF0707;" parent="1" vertex="1">
          <mxGeometry x="-622" y="204" width="119" height="30" as="geometry" />
        </mxCell>
        <mxCell id="RwIBvyNCzQx5JKe9MGN5-58" value="" style="rounded=1;whiteSpace=wrap;html=1;fillColor=none;align=left;verticalAlign=top;arcSize=6;strokeColor=#006600;" parent="1" vertex="1">
          <mxGeometry x="-620.5" y="492" width="388.5" height="102" as="geometry" />
        </mxCell>
        <mxCell id="RwIBvyNCzQx5JKe9MGN5-59" value="RelOptInfo (BASEREL)" style="text;html=1;align=center;verticalAlign=middle;whiteSpace=wrap;rounded=0;fontSize=10;fontStyle=1;fontColor=#006600;" parent="1" vertex="1">
          <mxGeometry x="-616" y="468" width="126" height="30" as="geometry" />
        </mxCell>
        <mxCell id="RwIBvyNCzQx5JKe9MGN5-60" value="" style="rounded=1;whiteSpace=wrap;html=1;fillColor=none;align=left;verticalAlign=top;arcSize=13;strokeColor=#006600;" parent="1" vertex="1">
          <mxGeometry x="-420" y="549" width="47" height="27" as="geometry" />
        </mxCell>
        <mxCell id="RwIBvyNCzQx5JKe9MGN5-61" value="RelOptInfo (BASEREL)" style="text;html=1;align=center;verticalAlign=middle;whiteSpace=wrap;rounded=0;fontSize=10;fontStyle=1;fontColor=#006600;" parent="1" vertex="1">
          <mxGeometry x="-459" y="525" width="128" height="30" as="geometry" />
        </mxCell>
        <mxCell id="RwIBvyNCzQx5JKe9MGN5-62" value="" style="rounded=1;whiteSpace=wrap;html=1;fillColor=none;arcSize=8;dashed=1;" parent="1" vertex="1">
          <mxGeometry x="-592" y="530" width="350" height="50" as="geometry" />
        </mxCell>
        <mxCell id="RwIBvyNCzQx5JKe9MGN5-63" value="" style="rounded=1;whiteSpace=wrap;html=1;fillColor=none;arcSize=2;dashed=1;" parent="1" vertex="1">
          <mxGeometry x="-630" y="190" width="410" height="412" as="geometry" />
        </mxCell>
        <mxCell id="RwIBvyNCzQx5JKe9MGN5-64" value="PlannerInfo" style="text;html=1;align=center;verticalAlign=middle;whiteSpace=wrap;rounded=0;" parent="1" vertex="1">
          <mxGeometry x="-467.25" y="160" width="81" height="30" as="geometry" />
        </mxCell>
        <mxCell id="RwIBvyNCzQx5JKe9MGN5-65" value="PlannerInfo" style="text;html=1;align=center;verticalAlign=middle;whiteSpace=wrap;rounded=0;" parent="1" vertex="1">
          <mxGeometry x="-464" y="504" width="94" height="30" as="geometry" />
        </mxCell>
        <mxCell id="t9thQ7US38gsmwE2zDbH-1" value="&lt;b&gt;RelOptInfo&lt;/b&gt;&lt;div&gt;&lt;br&gt;&lt;/div&gt;&lt;div&gt;&lt;font color=&quot;#006600&quot;&gt;RELOPT_BASEREL&lt;/font&gt;&lt;/div&gt;&lt;div&gt;&lt;font color=&quot;#006600&quot;&gt;&lt;br&gt;&lt;/font&gt;&lt;/div&gt;&lt;div&gt;&lt;font color=&quot;#006600&quot;&gt;&lt;br&gt;&lt;/font&gt;&lt;/div&gt;&lt;div&gt;&lt;font color=&quot;#bf0707&quot;&gt;RELOPT_JOINREL&lt;/font&gt;&lt;/div&gt;" style="text;html=1;align=left;verticalAlign=top;whiteSpace=wrap;rounded=0;" parent="1" vertex="1">
          <mxGeometry x="-194" y="343" width="120" height="116" as="geometry" />
        </mxCell>
        <mxCell id="t9thQ7US38gsmwE2zDbH-2" value="" style="shape=curlyBracket;whiteSpace=wrap;html=1;rounded=1;flipH=1;labelPosition=right;verticalLabelPosition=middle;align=left;verticalAlign=middle;" parent="1" vertex="1">
          <mxGeometry x="-74" y="373" width="20" height="66" as="geometry" />
        </mxCell>
        <mxCell id="t9thQ7US38gsmwE2zDbH-3" value="RelOptKind" style="text;html=1;align=center;verticalAlign=middle;whiteSpace=wrap;rounded=0;" parent="1" vertex="1">
          <mxGeometry x="-58" y="391" width="74" height="30" as="geometry" />
        </mxCell>
      </root>
    </mxGraphModel>
  </diagram>
</mxfile>
